<svg width="118" height="39" viewBox="0 0 118 39" fill="none" xmlns="http://www.w3.org/2000/svg">
<mask id="mask0_180_65" style="mask-type:luminance" maskUnits="userSpaceOnUse" x="1" y="4" width="26" height="31">
<path fill-rule="evenodd" clip-rule="evenodd" d="M2.07657 11.3341C2.91707 6.53034 7.45934 3.37922 12.1384 4.35442C16.7302 5.31149 19.621 10.0059 18.7403 14.7099V14.7099L18.4118 16.4641C18.0678 18.2997 19.2455 20.0726 21.0414 20.4238C24.7119 21.1416 27.2731 24.7225 26.5877 28.4765C25.9012 32.2343 22.3491 34.6982 18.6786 33.9629C15.0118 33.2282 12.7008 29.4736 13.4031 25.7224C13.7465 23.8868 12.5694 22.1142 10.7732 21.7629V21.7629L9.05646 21.4272C4.45368 20.5271 1.25183 16.0487 2.07657 11.3341Z" fill="white"/>
</mask>
<g mask="url(#mask0_180_65)">
<path fill-rule="evenodd" clip-rule="evenodd" d="M0.0668945 35.1772H32.7336V4.17725H0.0668945V35.1772Z" fill="url(#paint0_linear_180_65)"/>
</g>
<mask id="mask1_180_65" style="mask-type:luminance" maskUnits="userSpaceOnUse" x="0" y="24" width="10" height="11">
<path fill-rule="evenodd" clip-rule="evenodd" d="M1.64163 25.8598C-0.201508 27.7431 -0.201508 30.797 1.64163 32.6804C3.48421 34.5638 6.47242 34.5638 8.31556 32.6804C10.1581 30.797 10.1581 27.7431 8.31556 25.8598C6.47242 23.9764 3.48421 23.9764 1.64163 25.8598" fill="white"/>
</mask>
<g mask="url(#mask1_180_65)">
<path fill-rule="evenodd" clip-rule="evenodd" d="M1.64163 25.8598C-0.201508 27.7431 -0.201508 30.797 1.64163 32.6804C3.48421 34.5638 6.47242 34.5638 8.31556 32.6804C10.1581 30.797 10.1581 27.7431 8.31556 25.8598C6.47242 23.9764 3.48421 23.9764 1.64163 25.8598" fill="url(#paint1_linear_180_65)"/>
</g>
<path fill-rule="evenodd" clip-rule="evenodd" d="M82.13 25.09C81.9767 25.23 81.7867 25.3 81.56 25.3C81.32 25.3 81.1233 25.23 80.97 25.09C80.8167 24.95 80.74 24.7533 80.74 24.5V11.8C80.74 11.5467 80.8167 11.35 80.97 11.21C81.1233 11.07 81.32 11 81.56 11C81.7867 11 81.9767 11.07 82.13 11.21C82.2833 11.35 82.36 11.5467 82.36 11.8V24.5C82.36 24.7533 82.2833 24.95 82.13 25.09ZM57.84 24.72C57.1333 25.1333 56.32 25.34 55.4 25.34C54.48 25.34 53.67 25.1333 52.97 24.72C52.27 24.3067 51.73 23.7167 51.35 22.95C50.97 22.1833 50.78 21.2933 50.78 20.28C50.78 19.2667 50.97 18.3767 51.35 17.61C51.73 16.8433 52.27 16.2533 52.97 15.84C53.67 15.4267 54.48 15.22 55.4 15.22C56.32 15.22 57.1333 15.4267 57.84 15.84C58.5467 16.2533 59.09 16.8433 59.47 17.61C59.85 18.3767 60.04 19.2667 60.04 20.28C60.04 21.2933 59.85 22.1833 59.47 22.95C59.09 23.7167 58.5467 24.3067 57.84 24.72ZM43.71 28.76C43.5833 28.84 43.4533 28.88 43.32 28.88C43.12 28.88 42.9433 28.8167 42.79 28.69C42.6367 28.5633 42.56 28.4 42.56 28.2C42.56 28.0933 42.5867 27.9867 42.64 27.88L44.04 24.86L40.08 16.3C40.0267 16.2067 40 16.1067 40 16C40 15.8 40.09 15.6267 40.27 15.48C40.45 15.3333 40.6467 15.26 40.86 15.26C40.9933 15.26 41.1233 15.3 41.25 15.38C41.3767 15.46 41.4733 15.5733 41.54 15.72L44.88 23.22L48.22 15.76C48.3667 15.44 48.6 15.28 48.92 15.28C49.12 15.28 49.3 15.3467 49.46 15.48C49.62 15.6133 49.7 15.78 49.7 15.98C49.7 16.1 49.6733 16.2067 49.62 16.3L44 28.42C43.9333 28.5667 43.8367 28.68 43.71 28.76ZM55.4 24C54.44 24 53.7033 23.68 53.19 23.04C52.6767 22.4 52.42 21.48 52.42 20.28C52.42 19.0933 52.68 18.1767 53.2 17.53C53.72 16.8833 54.4533 16.56 55.4 16.56C56.3467 16.56 57.08 16.8833 57.6 17.53C58.12 18.1767 58.38 19.0933 58.38 20.28C58.38 21.4933 58.1233 22.4167 57.61 23.05C57.0967 23.6833 56.36 24 55.4 24ZM67.79 24.88C67.2367 25.1867 66.6133 25.34 65.92 25.34C64.76 25.34 63.8867 25.0167 63.3 24.37C62.7133 23.7233 62.42 22.7667 62.42 21.5V16.06C62.42 15.82 62.4933 15.6267 62.64 15.48C62.7867 15.3333 62.9867 15.26 63.24 15.26C63.4933 15.26 63.69 15.3333 63.83 15.48C63.97 15.6267 64.04 15.82 64.04 16.06V21.46C64.04 22.3267 64.2133 22.9633 64.56 23.37C64.9067 23.7767 65.4533 23.98 66.2 23.98C67.0533 23.98 67.74 23.7033 68.26 23.15C68.78 22.5967 69.04 21.8667 69.04 20.96V16.06C69.04 15.82 69.1133 15.6267 69.26 15.48C69.4067 15.3333 69.6067 15.26 69.86 15.26C70.1133 15.26 70.31 15.3333 70.45 15.48C70.59 15.6267 70.66 15.82 70.66 16.06V24.52C70.66 24.7467 70.59 24.9333 70.45 25.08C70.31 25.2267 70.1133 25.3 69.86 25.3C69.62 25.3 69.43 25.23 69.29 25.09C69.15 24.95 69.08 24.7667 69.08 24.54V23.54C68.7733 24.1267 68.3433 24.5733 67.79 24.88ZM74.5 25.3C74.74 25.3 74.9333 25.2333 75.08 25.1C75.2267 24.9667 75.3 24.7667 75.3 24.5V19.64C75.3 18.8933 75.5167 18.2433 75.95 17.69C76.3833 17.1367 77.0467 16.82 77.94 16.74L78.54 16.68C78.8333 16.6533 79.04 16.5767 79.16 16.45C79.28 16.3233 79.34 16.1533 79.34 15.94C79.34 15.4467 79.06 15.22 78.5 15.26L78.22 15.28C77.5533 15.3333 76.9633 15.5133 76.45 15.82C75.9367 16.1267 75.54 16.5733 75.26 17.16V16.04C75.26 15.8 75.1867 15.61 75.04 15.47C74.8933 15.33 74.7133 15.26 74.5 15.26C74.2733 15.26 74.08 15.33 73.92 15.47C73.76 15.61 73.68 15.8067 73.68 16.06V24.5C73.68 24.7533 73.7567 24.95 73.91 25.09C74.0633 25.23 74.26 25.3 74.5 25.3ZM89.42 25.34C90.34 25.34 91.1533 25.1333 91.86 24.72C92.5667 24.3067 93.11 23.7167 93.49 22.95C93.87 22.1833 94.06 21.2933 94.06 20.28C94.06 19.2667 93.87 18.3767 93.49 17.61C93.11 16.8433 92.5667 16.2533 91.86 15.84C91.1533 15.4267 90.34 15.22 89.42 15.22C88.5 15.22 87.69 15.4267 86.99 15.84C86.29 16.2533 85.75 16.8433 85.37 17.61C84.99 18.3767 84.8 19.2667 84.8 20.28C84.8 21.2933 84.99 22.1833 85.37 22.95C85.75 23.7167 86.29 24.3067 86.99 24.72C87.69 25.1333 88.5 25.34 89.42 25.34ZM87.21 23.04C87.7233 23.68 88.46 24 89.42 24C90.38 24 91.1167 23.6833 91.63 23.05C92.1433 22.4167 92.4 21.4933 92.4 20.28C92.4 19.0933 92.14 18.1767 91.62 17.53C91.1 16.8833 90.3667 16.56 89.42 16.56C88.4733 16.56 87.74 16.8833 87.22 17.53C86.7 18.1767 86.44 19.0933 86.44 20.28C86.44 21.48 86.6967 22.4 87.21 23.04ZM100.76 28.94C102.227 28.94 103.333 28.57 104.08 27.83C104.827 27.09 105.2 25.9933 105.2 24.54V16.06C105.2 15.82 105.127 15.6267 104.98 15.48C104.833 15.3333 104.633 15.26 104.38 15.26C104.127 15.26 103.93 15.3333 103.79 15.48C103.65 15.6267 103.58 15.82 103.58 16.06V17.14C103.287 16.5267 102.853 16.0533 102.28 15.72C101.707 15.3867 101.033 15.22 100.26 15.22C99.4067 15.22 98.65 15.42 97.99 15.82C97.33 16.22 96.8167 16.7867 96.45 17.52C96.0833 18.2533 95.9 19.1 95.9 20.06C95.9 21.02 96.0833 21.8667 96.45 22.6C96.8167 23.3333 97.33 23.9 97.99 24.3C98.65 24.7 99.4067 24.9 100.26 24.9C101.047 24.9 101.73 24.7333 102.31 24.4C102.89 24.0667 103.32 23.5867 103.6 22.96V24.68C103.6 25.64 103.36 26.37 102.88 26.87C102.4 27.37 101.687 27.62 100.74 27.62C100.113 27.62 99.5733 27.5467 99.12 27.4C98.6667 27.2533 98.2067 27.06 97.74 26.82C97.3933 26.6333 97.1533 26.54 97.02 26.54C96.86 26.54 96.73 26.6 96.63 26.72C96.53 26.84 96.48 26.9933 96.48 27.18C96.48 27.5267 96.72 27.8333 97.2 28.1C98.1467 28.66 99.3333 28.94 100.76 28.94ZM98.35 22.63C98.89 23.25 99.6333 23.56 100.58 23.56C101.513 23.56 102.247 23.25 102.78 22.63C103.313 22.01 103.58 21.1533 103.58 20.06C103.58 18.98 103.317 18.13 102.79 17.51C102.263 16.89 101.527 16.58 100.58 16.58C99.6333 16.58 98.89 16.89 98.35 17.51C97.81 18.13 97.54 18.98 97.54 20.06C97.54 21.1533 97.81 22.01 98.35 22.63ZM112.24 25.34C113.16 25.34 113.973 25.1333 114.68 24.72C115.387 24.3067 115.93 23.7167 116.31 22.95C116.69 22.1833 116.88 21.2933 116.88 20.28C116.88 19.2667 116.69 18.3767 116.31 17.61C115.93 16.8433 115.387 16.2533 114.68 15.84C113.973 15.4267 113.16 15.22 112.24 15.22C111.32 15.22 110.51 15.4267 109.81 15.84C109.11 16.2533 108.57 16.8433 108.19 17.61C107.81 18.3767 107.62 19.2667 107.62 20.28C107.62 21.2933 107.81 22.1833 108.19 22.95C108.57 23.7167 109.11 24.3067 109.81 24.72C110.51 25.1333 111.32 25.34 112.24 25.34ZM110.03 23.04C110.543 23.68 111.28 24 112.24 24C113.2 24 113.937 23.6833 114.45 23.05C114.963 22.4167 115.22 21.4933 115.22 20.28C115.22 19.0933 114.96 18.1767 114.44 17.53C113.92 16.8833 113.187 16.56 112.24 16.56C111.293 16.56 110.56 16.8833 110.04 17.53C109.52 18.1767 109.26 19.0933 109.26 20.28C109.26 21.48 109.517 22.4 110.03 23.04Z" fill="#171C2D"/>
<defs>
<linearGradient id="paint0_linear_180_65" x1="-16.0599" y1="19.7426" x2="14.7672" y2="52.227" gradientUnits="userSpaceOnUse">
<stop stop-color="#192B74"/>
<stop offset="1" stop-color="#2946A1"/>
</linearGradient>
<linearGradient id="paint1_linear_180_65" x1="-4.40015" y1="29.2904" x2="5.20257" y2="38.6866" gradientUnits="userSpaceOnUse">
<stop stop-color="#192B74"/>
<stop offset="1" stop-color="#2946A1"/>
</linearGradient>
</defs>
</svg>
